<?xml version="1.0" encoding="utf-8"?>
<!-- Generator: Adobe Illustrator 24.0.2, SVG Export Plug-In . SVG Version: 6.00 Build 0)  -->
<svg version="1.1" xmlns="http://www.w3.org/2000/svg" xmlns:xlink="http://www.w3.org/1999/xlink" x="0px" y="0px"
	 viewBox="0 0 456.08 120.2" style="enable-background:new 0 0 456.08 120.2;" xml:space="preserve">
<style type="text/css">
	.st0{fill:#F6BED9;}
	.st1{fill:#84CFEF;}
	.st2{fill:none;stroke:#F6BFD9;stroke-width:4;stroke-miterlimit:10;}
</style>
<g id="Text">
	<g>
		<g>
			<path d="M10.89,99.16c-3.25,0-5.69-0.89-7.32-2.68c-1.63-1.79-2.44-3.99-2.44-6.6c0-2.4,0.6-4.93,1.8-7.6
				c1.2-2.67,2.8-5.17,4.8-7.52c2-2.35,4.2-4.25,6.6-5.72c2.4-1.47,4.77-2.2,7.12-2.2c1.23,0,2.36,0.32,3.4,0.96
				c1.04,0.64,1.56,1.95,1.56,3.92c0,2.03-0.6,3.93-1.8,5.72c-1.2,1.79-2.77,3.37-4.72,4.76c-1.95,1.39-4.08,2.52-6.4,3.4
				c-2.32,0.88-4.63,1.43-6.92,1.64c-0.11,0.53-0.19,1.04-0.24,1.52c-0.05,0.48-0.08,0.93-0.08,1.36c0,0.8,0.09,1.6,0.28,2.4
				c0.19,0.8,0.52,1.53,1,2.2c0.48,0.67,1.13,1.19,1.96,1.56c0.83,0.37,1.85,0.56,3.08,0.56c2.29,0,4.56-0.65,6.8-1.96
				c2.24-1.31,4.32-3.03,6.24-5.16c1.92-2.13,3.55-4.48,4.88-7.04l0.96,0.72c-1.44,3.2-3.27,5.97-5.48,8.32
				c-2.21,2.35-4.61,4.17-7.2,5.48C16.18,98.51,13.55,99.16,10.89,99.16z M6.97,85.72c1.44-0.48,3.07-1.19,4.88-2.12
				c1.81-0.93,3.56-2.04,5.24-3.32c1.68-1.28,3.07-2.69,4.16-4.24c1.09-1.55,1.64-3.17,1.64-4.88c0-0.59-0.11-1.04-0.32-1.36
				c-0.21-0.32-0.67-0.48-1.36-0.48c-1.28,0-2.64,0.49-4.08,1.48c-1.44,0.99-2.83,2.28-4.16,3.88c-1.33,1.6-2.53,3.36-3.6,5.28
				C8.3,81.88,7.5,83.8,6.97,85.72z"/>
			<path d="M54.73,97.24c-1.87,0-3.27-0.48-4.2-1.44c-0.93-0.96-1.4-2.19-1.4-3.68c0-1.12,0.2-2.29,0.6-3.52
				c0.4-1.23,0.79-2.49,1.16-3.8c0.37-1.31,0.56-2.57,0.56-3.8c0-1.49-0.31-2.52-0.92-3.08c-0.61-0.56-1.37-0.84-2.28-0.84
				c-1.65,0-3.33,0.68-5.04,2.04c-1.71,1.36-3.36,3.09-4.96,5.2c-1.6,2.11-3.09,4.28-4.48,6.52c-1.39,2.24-2.61,4.24-3.68,6
				c-0.85,0-1.67-0.15-2.44-0.44c-0.77-0.29-1.37-0.73-1.8-1.32c0-0.27,0.28-1.09,0.84-2.48c0.56-1.39,1.21-3.09,1.96-5.12
				c0.75-2.03,1.41-4.11,2-6.24c0.59-2.13,0.88-4.08,0.88-5.84c0.32-0.37,0.83-0.75,1.52-1.12c0.69-0.37,1.41-0.56,2.16-0.56
				c1.44,0,2.16,0.69,2.16,2.08c0,0.85-0.24,2.28-0.72,4.28c-0.48,2-1.09,4.09-1.84,6.28c1.44-2.19,3.05-4.36,4.84-6.52
				c1.79-2.16,3.69-3.96,5.72-5.4c2.03-1.44,4.05-2.16,6.08-2.16c2.08,0,3.59,0.75,4.52,2.24c0.93,1.49,1.4,3.15,1.4,4.96
				c0,1.65-0.27,3.19-0.8,4.6c-0.53,1.41-1.08,2.77-1.64,4.08c-0.56,1.31-0.84,2.63-0.84,3.96c0,1.12,0.23,1.91,0.68,2.36
				c0.45,0.45,1.03,0.68,1.72,0.68c1.33,0,2.67-0.63,4-1.88c1.33-1.25,2.63-2.84,3.88-4.76c1.25-1.92,2.36-3.87,3.32-5.84l0.88,1.04
				c-1.12,2.61-2.37,4.93-3.76,6.96c-1.39,2.03-2.91,3.63-4.56,4.8C58.59,96.66,56.75,97.24,54.73,97.24z"/>
			<path d="M69.21,118.04c-1.17,0-2.24-0.36-3.2-1.08c-0.96-0.72-1.44-1.91-1.44-3.56c0-1.6,0.49-3.08,1.48-4.44
				c0.99-1.36,2.25-2.61,3.8-3.76c1.55-1.15,3.24-2.2,5.08-3.16c1.84-0.96,3.59-1.87,5.24-2.72c0.75-1.87,1.45-3.88,2.12-6.04
				c0.67-2.16,1.32-4.55,1.96-7.16c-2.03,2.93-4.15,5.37-6.36,7.32c-2.21,1.95-4.44,2.92-6.68,2.92c-1.92,0-3.4-0.72-4.44-2.16
				s-1.56-3.31-1.56-5.6c0-2.77,0.68-5.41,2.04-7.92c1.36-2.51,3.13-4.72,5.32-6.64c2.19-1.92,4.51-3.43,6.96-4.52
				c2.45-1.09,4.75-1.64,6.88-1.64c1.55,0,2.65,0.25,3.32,0.76c0.67,0.51,1,1.11,1,1.8c0,0.48-0.13,0.85-0.4,1.12
				c-0.27,0.27-0.45,0.43-0.56,0.48c-0.27-0.43-0.67-0.73-1.2-0.92c-0.53-0.19-1.2-0.28-2-0.28c-2.08,0-4.09,0.61-6.04,1.84
				c-1.95,1.23-3.67,2.8-5.16,4.72c-1.49,1.92-2.68,3.91-3.56,5.96c-0.88,2.05-1.32,3.93-1.32,5.64c0,1.28,0.25,2.25,0.76,2.92
				c0.51,0.67,1.19,1,2.04,1c1.55,0,3.4-1.03,5.56-3.08c2.16-2.05,4.25-4.55,6.28-7.48c0.16-0.75,0.31-1.41,0.44-2
				c0.13-0.59,0.31-1.33,0.52-2.24c0.16-0.75,0.55-1.61,1.16-2.6c0.61-0.99,1.59-1.48,2.92-1.48c0.27,0,0.53,0.01,0.8,0.04
				c0.27,0.03,0.56,0.09,0.88,0.2c0,0.85-0.25,2.41-0.76,4.68c-0.51,2.27-1.23,4.91-2.16,7.92c-0.93,3.01-2.01,6.12-3.24,9.32
				c1.76-0.85,3.48-1.95,5.16-3.28c1.68-1.33,3.21-2.87,4.6-4.6c1.39-1.73,2.48-3.61,3.28-5.64l1.04,0.8
				c-0.8,2.4-2.08,4.59-3.84,6.56c-1.76,1.97-3.64,3.68-5.64,5.12s-3.83,2.56-5.48,3.36c-1.49,3.57-3.07,6.84-4.72,9.8
				c-1.65,2.96-3.37,5.32-5.16,7.08C73.14,117.16,71.23,118.04,69.21,118.04z M68.97,115.48c1.07,0,2.52-1.05,4.36-3.16
				c1.84-2.11,3.83-5.72,5.96-10.84c-2.13,1.07-4.12,2.17-5.96,3.32c-1.84,1.15-3.35,2.36-4.52,3.64c-1.17,1.28-1.76,2.69-1.76,4.24
				c0,0.85,0.19,1.53,0.56,2.04C67.98,115.23,68.43,115.48,68.97,115.48z"/>
			<path d="M103.93,98.04c-2.29,0-3.93-0.79-4.92-2.36c-0.99-1.57-1.48-3.53-1.48-5.88c0-2.56,0.48-5.6,1.44-9.12
				s2.23-7.23,3.8-11.12c1.57-3.89,3.29-7.69,5.16-11.4c1.87-3.71,3.73-7.08,5.6-10.12c1.87-3.04,3.59-5.47,5.16-7.28
				c1.57-1.81,2.81-2.72,3.72-2.72c0.59,0,1.07,0.33,1.44,1c0.37,0.67,0.67,1.47,0.88,2.4c0.21,0.93,0.32,1.77,0.32,2.52
				c0,1.44-0.36,3.32-1.08,5.64c-0.72,2.32-1.73,4.91-3.04,7.76c-1.31,2.85-2.85,5.73-4.64,8.64c-1.79,2.91-3.73,5.69-5.84,8.36
				c-2.11,2.67-4.33,4.96-6.68,6.88c-0.32,1.44-0.57,2.84-0.76,4.2c-0.19,1.36-0.28,2.65-0.28,3.88c0,2.08,0.29,3.63,0.88,4.64
				c0.59,1.01,1.47,1.52,2.64,1.52c1.44,0,2.87-0.64,4.28-1.92c1.41-1.28,2.75-2.89,4-4.84c1.25-1.95,2.33-3.96,3.24-6.04l1.2,0.64
				c-2.13,4.53-4.45,8.12-6.96,10.76C109.5,96.72,106.8,98.04,103.93,98.04z M104.49,78.52c1.87-1.87,3.68-4.01,5.44-6.44
				c1.76-2.43,3.4-4.95,4.92-7.56c1.52-2.61,2.87-5.15,4.04-7.6c1.17-2.45,2.08-4.65,2.72-6.6c0.64-1.95,0.96-3.45,0.96-4.52
				c0-0.53-0.07-0.88-0.2-1.04c-0.13-0.16-0.25-0.24-0.36-0.24c-0.43,0-1.16,0.68-2.2,2.04s-2.25,3.19-3.64,5.48
				c-1.39,2.29-2.8,4.91-4.24,7.84c-1.44,2.93-2.81,6-4.12,9.2C106.5,72.28,105.39,75.43,104.49,78.52z"/>
			<path d="M121.92,97.72c-2.08,0-3.63-0.65-4.64-1.96c-1.01-1.31-1.52-2.89-1.52-4.76c0-1.23,0.23-2.77,0.68-4.64
				c0.45-1.87,1.05-3.83,1.8-5.88c0.75-2.05,1.61-3.99,2.6-5.8c0.99-1.81,2.04-3.29,3.16-4.44c1.12-1.15,2.21-1.72,3.28-1.72
				c0.48,0,0.89,0.15,1.24,0.44c0.35,0.29,0.52,0.73,0.52,1.32c0,0.64-0.41,1.68-1.24,3.12c-0.83,1.44-1.8,3.09-2.92,4.96
				c-1.12,1.87-2.09,3.83-2.92,5.88c-0.83,2.05-1.24,4.01-1.24,5.88c0,1.92,0.32,3.2,0.96,3.84c0.64,0.64,1.63,0.96,2.96,0.96
				c1.81,0,3.75-0.91,5.8-2.72c2.05-1.81,4.23-4.99,6.52-9.52l0.72,0.8c-1.55,4.59-3.77,8.11-6.68,10.56
				C128.1,96.5,125.07,97.72,121.92,97.72z M131.52,61.08c-0.85,0-1.61-0.21-2.28-0.64c-0.67-0.43-1-1.09-1-2
				c0-1.12,0.65-2.09,1.96-2.92c1.31-0.83,2.6-1.24,3.88-1.24c0.8,0,1.44,0.19,1.92,0.56c0.48,0.37,0.72,1.01,0.72,1.92
				c0,1.01-0.55,1.99-1.64,2.92C133.99,60.62,132.8,61.08,131.52,61.08z"/>
			<path d="M143.84,99.72c-2.51,0-4.49-0.55-5.96-1.64c-1.47-1.09-2.51-2.44-3.12-4.04c-0.61-1.6-0.92-3.2-0.92-4.8
				s0.21-2.83,0.64-3.68c0.43-0.85,0.95-1.49,1.56-1.92c0.61-0.43,1.2-0.75,1.76-0.96c0.56-0.21,0.95-0.43,1.16-0.64
				c1.6-1.76,3.07-3.6,4.4-5.52c1.33-1.92,2.51-3.95,3.52-6.08v-0.96c0-1.97,0.33-3.37,1-4.2c0.67-0.83,1.37-1.24,2.12-1.24
				c0.43,0,0.75,0.11,0.96,0.32c0.21,0.21,0.32,0.45,0.32,0.72c0,0.27-0.08,0.69-0.24,1.28c-0.16,0.59-0.24,1.33-0.24,2.24
				c0,1.76,0.35,3.67,1.04,5.72c0.69,2.05,1.39,4.21,2.08,6.48c0.69,2.27,1.04,4.63,1.04,7.08c0,0.69-0.04,1.37-0.12,2.04
				c-0.08,0.67-0.2,1.29-0.36,1.88c1.87-0.32,3.63-1.16,5.28-2.52c1.65-1.36,3.25-3.53,4.8-6.52l0.72,0.8
				c-1.01,2.93-2.53,5.16-4.56,6.68c-2.03,1.52-4.24,2.47-6.64,2.84c-0.85,2.29-2.2,3.97-4.04,5.04
				C148.2,99.19,146.14,99.72,143.84,99.72z M144,96.92c0.64,0,1.49-0.21,2.56-0.64c1.07-0.43,1.89-1.52,2.48-3.28
				c-2.24-0.43-4.23-1.31-5.96-2.64c-1.73-1.33-3.03-2.67-3.88-4c-1.17,0.05-1.76,0.99-1.76,2.8c0,1.92,0.57,3.69,1.72,5.32
				C140.31,96.11,141.92,96.92,144,96.92z M149.44,91.72c0.11-0.53,0.19-1.09,0.24-1.68c0.05-0.59,0.08-1.28,0.08-2.08
				c0-2.51-0.31-5-0.92-7.48c-0.61-2.48-1.13-4.81-1.56-7c-1.23,2.03-2.52,3.96-3.88,5.8c-1.36,1.84-2.65,3.37-3.88,4.6
				c0.8,1.71,2.04,3.31,3.72,4.8C144.92,90.18,146.99,91.19,149.44,91.72z"/>
			<path d="M166.8,98.68c-1.01,0-1.81-0.85-2.4-2.56s-0.88-3.63-0.88-5.76c0-2.56,0.43-5.6,1.28-9.12
				c0.85-3.52,1.97-7.23,3.36-11.12c1.39-3.89,2.95-7.71,4.68-11.44c1.73-3.73,3.51-7.12,5.32-10.16c1.81-3.04,3.52-5.47,5.12-7.28
				c1.6-1.81,2.99-2.72,4.16-2.72c0.96,0,1.64,0.57,2.04,1.72c0.4,1.15,0.6,2.25,0.6,3.32c0,1.49-0.33,3.31-1,5.44
				c-0.67,2.13-1.59,4.41-2.76,6.84c-1.17,2.43-2.53,4.81-4.08,7.16c-1.55,2.35-3.23,4.49-5.04,6.44c-1.81,1.95-3.65,3.48-5.52,4.6
				c-0.64,1.55-1.19,3.28-1.64,5.2c-0.45,1.92-0.79,3.8-1,5.64c-0.21,1.84-0.32,3.48-0.32,4.92c0,0.59,0.01,1.09,0.04,1.52
				c0.03,0.43,0.07,0.83,0.12,1.2c0.75-2.19,1.56-4.31,2.44-6.36c0.88-2.05,1.83-3.95,2.84-5.68c1.01-1.73,2.09-3.25,3.24-4.56
				c1.15-1.31,2.36-2.32,3.64-3.04c1.28-0.72,2.64-1.08,4.08-1.08c1.49,0,2.68,0.36,3.56,1.08c0.88,0.72,1.52,1.63,1.92,2.72
				c0.4,1.09,0.6,2.23,0.6,3.4c0,1.65-0.28,3.25-0.84,4.8c-0.56,1.55-1.13,3.04-1.72,4.48c-0.59,1.44-0.88,2.83-0.88,4.16
				c0,1.07,0.23,1.84,0.68,2.32s1.03,0.72,1.72,0.72c1.23,0,2.6-0.59,4.12-1.76c1.52-1.17,3.03-2.73,4.52-4.68
				c1.49-1.95,2.77-4.07,3.84-6.36l1.04,0.96c-1.12,2.61-2.48,4.97-4.08,7.08c-1.6,2.11-3.36,3.77-5.28,5
				c-1.92,1.23-3.92,1.84-6,1.84c-1.81,0-3.19-0.48-4.12-1.44c-0.93-0.96-1.4-2.16-1.4-3.6c0-1.12,0.21-2.37,0.64-3.76
				c0.43-1.39,0.84-2.8,1.24-4.24c0.4-1.44,0.6-2.8,0.6-4.08c0-1.39-0.29-2.37-0.88-2.96c-0.59-0.59-1.31-0.88-2.16-0.88
				c-1.33,0-2.53,0.53-3.6,1.6c-1.07,1.07-2.04,2.44-2.92,4.12c-0.88,1.68-1.71,3.45-2.48,5.32c-0.77,1.87-1.51,3.64-2.2,5.32
				c-0.69,1.68-1.39,3.05-2.08,4.12C168.27,98.15,167.55,98.68,166.8,98.68z M172.72,70.92c1.49-1.17,2.95-2.67,4.36-4.48
				c1.41-1.81,2.73-3.75,3.96-5.8c1.23-2.05,2.32-4.07,3.28-6.04c0.96-1.97,1.71-3.76,2.24-5.36s0.8-2.8,0.8-3.6
				c0-0.27-0.03-0.44-0.08-0.52c-0.05-0.08-0.13-0.12-0.24-0.12c-0.37,0-1.13,0.73-2.28,2.2c-1.15,1.47-2.47,3.43-3.96,5.88
				c-1.49,2.45-2.96,5.23-4.4,8.32C174.96,64.5,173.74,67.67,172.72,70.92z"/>
			<path d="M271.92,99.72c-2.51,0-4.49-0.55-5.96-1.64c-1.47-1.09-2.51-2.44-3.12-4.04c-0.61-1.6-0.92-3.2-0.92-4.8
				s0.21-2.83,0.64-3.68c0.43-0.85,0.95-1.49,1.56-1.92c0.61-0.43,1.2-0.75,1.76-0.96c0.56-0.21,0.95-0.43,1.16-0.64
				c1.6-1.76,3.07-3.6,4.4-5.52c1.33-1.92,2.51-3.95,3.52-6.08v-0.96c0-1.97,0.33-3.37,1-4.2c0.67-0.83,1.37-1.24,2.12-1.24
				c0.43,0,0.75,0.11,0.96,0.32c0.21,0.21,0.32,0.45,0.32,0.72c0,0.27-0.08,0.69-0.24,1.28c-0.16,0.59-0.24,1.33-0.24,2.24
				c0,1.76,0.35,3.67,1.04,5.72c0.69,2.05,1.39,4.21,2.08,6.48c0.69,2.27,1.04,4.63,1.04,7.08c0,0.69-0.04,1.37-0.12,2.04
				c-0.08,0.67-0.2,1.29-0.36,1.88c1.87-0.32,3.63-1.16,5.28-2.52c1.65-1.36,3.25-3.53,4.8-6.52l0.72,0.8
				c-1.01,2.93-2.53,5.16-4.56,6.68c-2.03,1.52-4.24,2.47-6.64,2.84c-0.85,2.29-2.2,3.97-4.04,5.04
				C276.28,99.19,274.21,99.72,271.92,99.72z M272.08,96.92c0.64,0,1.49-0.21,2.56-0.64c1.07-0.43,1.89-1.52,2.48-3.28
				c-2.24-0.43-4.23-1.31-5.96-2.64c-1.73-1.33-3.03-2.67-3.88-4c-1.17,0.05-1.76,0.99-1.76,2.8c0,1.92,0.57,3.69,1.72,5.32
				C268.39,96.11,270,96.92,272.08,96.92z M277.52,91.72c0.11-0.53,0.19-1.09,0.24-1.68c0.05-0.59,0.08-1.28,0.08-2.08
				c0-2.51-0.31-5-0.92-7.48s-1.13-4.81-1.56-7c-1.23,2.03-2.52,3.96-3.88,5.8c-1.36,1.84-2.65,3.37-3.88,4.6
				c0.8,1.71,2.04,3.31,3.72,4.8C273,90.18,275.07,91.19,277.52,91.72z"/>
			<path d="M314.88,98.68c-1.49,0-2.77-0.51-3.84-1.52c-1.07-1.01-1.91-2.29-2.52-3.84c-0.61-1.55-1.07-3.13-1.36-4.76
				c-0.29-1.63-0.44-3.05-0.44-4.28c0.59,0,1.44-0.15,2.56-0.44c1.12-0.29,2.27-0.75,3.44-1.36c1.17-0.61,2.17-1.41,3-2.4
				c0.83-0.99,1.24-2.15,1.24-3.48c0-1.12-0.4-2-1.2-2.64c-0.8-0.64-1.73-0.96-2.8-0.96c-1.65,0-3.2,0.57-4.64,1.72
				c-1.44,1.15-2.73,2.64-3.88,4.48c-1.15,1.84-2.17,3.8-3.08,5.88c-0.91,2.08-1.68,4.05-2.32,5.92c-0.64,1.87-1.17,3.41-1.6,4.64
				c-0.32,0.96-0.77,1.61-1.36,1.96c-0.59,0.35-1.2,0.52-1.84,0.52c-0.91,0-1.56-0.37-1.96-1.12c-0.4-0.75-0.64-1.69-0.72-2.84
				c-0.08-1.15-0.12-2.33-0.12-3.56c0-2.77,0.45-5.97,1.36-9.6c0.91-3.63,2.12-7.4,3.64-11.32c1.52-3.92,3.19-7.72,5-11.4
				c1.81-3.68,3.63-7.01,5.44-10c1.81-2.99,3.49-5.36,5.04-7.12c1.55-1.76,2.8-2.64,3.76-2.64c0.75,0,1.35,0.51,1.8,1.52
				c0.45,1.01,0.68,2.24,0.68,3.68c0,1.81-0.4,3.85-1.2,6.12c-0.8,2.27-1.93,4.55-3.4,6.84c-1.47,2.29-3.2,4.45-5.2,6.48
				c-2,2.03-4.17,3.76-6.52,5.2c-1.76,4.32-3.08,8.52-3.96,12.6c-0.88,4.08-1.32,7.51-1.32,10.28c0.85-2.13,1.88-4.48,3.08-7.04
				s2.57-5.01,4.12-7.36c1.55-2.35,3.23-4.27,5.04-5.76c1.81-1.49,3.71-2.24,5.68-2.24c1.97,0,3.65,0.69,5.04,2.08
				c1.39,1.39,2.08,3.07,2.08,5.04c0,1.71-0.44,3.16-1.32,4.36c-0.88,1.2-1.95,2.16-3.2,2.88c-1.25,0.72-2.51,1.25-3.76,1.6
				c-1.25,0.35-2.28,0.52-3.08,0.52c0.05,0.43,0.21,1.2,0.48,2.32c0.27,1.12,0.65,2.29,1.16,3.52c0.51,1.23,1.13,2.28,1.88,3.16
				c0.75,0.88,1.65,1.32,2.72,1.32c1.55,0,3.01-0.59,4.4-1.76c1.39-1.17,2.71-2.73,3.96-4.68c1.25-1.95,2.41-4.15,3.48-6.6l0.8,0.8
				c-0.75,2.61-1.89,5.08-3.44,7.4c-1.55,2.32-3.27,4.21-5.16,5.68C318.63,97.95,316.75,98.68,314.88,98.68z M303.2,65.16
				c2.45-1.97,4.6-4.21,6.44-6.72c1.84-2.51,3.27-4.92,4.28-7.24c1.01-2.32,1.52-4.15,1.52-5.48c0-0.27-0.01-0.45-0.04-0.56
				c-0.03-0.11-0.09-0.16-0.2-0.16c-0.53,0-1.45,0.93-2.76,2.8c-1.31,1.87-2.79,4.33-4.44,7.4
				C306.35,58.27,304.75,61.59,303.2,65.16z"/>
			<path d="M330.24,118.04c-1.33,0-2.51-0.36-3.52-1.08c-1.01-0.72-1.52-1.77-1.52-3.16c0-1.71,0.43-3.23,1.28-4.56
				c0.85-1.33,2-2.56,3.44-3.68c1.44-1.12,3.09-2.19,4.96-3.2c1.87-1.01,3.81-2.03,5.84-3.04c0.75-1.97,1.51-4.17,2.28-6.6
				c0.77-2.43,1.51-5.11,2.2-8.04c-1.71,2.77-3.53,5.16-5.48,7.16c-1.95,2-4.01,3-6.2,3c-1.01,0-2.01-0.23-3-0.68
				c-0.99-0.45-1.8-1.16-2.44-2.12c-0.64-0.96-0.96-2.19-0.96-3.68c0-1.49,0.25-3.23,0.76-5.2c0.51-1.97,1.13-3.89,1.88-5.76
				c0.75-1.87,1.52-3.41,2.32-4.64c0.8-1.23,1.49-1.84,2.08-1.84c0.21,0,0.6,0.08,1.16,0.24c0.56,0.16,1.09,0.39,1.6,0.68
				c0.51,0.29,0.76,0.6,0.76,0.92c-0.48,0.69-1.01,1.68-1.6,2.96c-0.59,1.28-1.16,2.71-1.72,4.28c-0.56,1.57-1.03,3.11-1.4,4.6
				c-0.37,1.49-0.56,2.77-0.56,3.84c0,0.96,0.21,1.73,0.64,2.32c0.43,0.59,1.17,0.88,2.24,0.88c1.01,0,2.15-0.49,3.4-1.48
				c1.25-0.99,2.51-2.25,3.76-3.8c1.25-1.55,2.41-3.2,3.48-4.96c0.16-0.59,0.31-1.19,0.44-1.8c0.13-0.61,0.25-1.24,0.36-1.88
				c0.16-0.75,0.55-1.61,1.16-2.6c0.61-0.99,1.59-1.48,2.92-1.48c0.27,0,0.53,0.01,0.8,0.04c0.27,0.03,0.56,0.09,0.88,0.2
				c0,0.85-0.25,2.44-0.76,4.76c-0.51,2.32-1.23,5.03-2.16,8.12c-0.93,3.09-2.04,6.27-3.32,9.52c2.51-0.96,4.96-2.55,7.36-4.76
				c2.4-2.21,4.35-5.16,5.84-8.84l1.04,0.8c-0.8,2.56-2.01,4.79-3.64,6.68c-1.63,1.89-3.45,3.52-5.48,4.88
				c-2.03,1.36-4.03,2.49-6,3.4c-1.39,3.41-2.89,6.61-4.52,9.6c-1.63,2.99-3.33,5.4-5.12,7.24
				C333.93,117.12,332.11,118.04,330.24,118.04z M329.84,115.48c0.8,0,2.15-1.05,4.04-3.16c1.89-2.11,3.91-5.8,6.04-11.08
				c-2.19,1.17-4.21,2.33-6.08,3.48c-1.87,1.15-3.36,2.39-4.48,3.72c-1.12,1.33-1.68,2.88-1.68,4.64c0,0.43,0.16,0.93,0.48,1.52
				C328.48,115.19,329.04,115.48,329.84,115.48z"/>
			<path d="M365.36,101.48c-2.77,0-4.84-0.91-6.2-2.72c-1.36-1.81-2.04-4.27-2.04-7.36c0-2.67,0.45-5.81,1.36-9.44
				c0.91-3.63,2.11-7.43,3.6-11.4c1.49-3.97,3.16-7.85,5-11.64c1.84-3.79,3.69-7.21,5.56-10.28c1.87-3.07,3.63-5.52,5.28-7.36
				c1.65-1.84,3.01-2.76,4.08-2.76c0.91,0,1.56,0.56,1.96,1.68c0.4,1.12,0.6,2.24,0.6,3.36c0,1.49-0.32,3.31-0.96,5.44
				c-0.64,2.13-1.55,4.41-2.72,6.84c-1.17,2.43-2.53,4.81-4.08,7.16c-1.55,2.35-3.21,4.49-5,6.44c-1.79,1.95-3.61,3.48-5.48,4.6
				c-0.32,0.59-0.79,1.8-1.4,3.64c-0.61,1.84-1.17,3.95-1.68,6.32c-0.51,2.37-0.76,4.68-0.76,6.92c0,2.19,0.33,3.99,1,5.4
				c0.67,1.41,1.8,2.12,3.4,2.12c1.55,0,3.15-0.63,4.8-1.88c1.65-1.25,2.99-2.87,4-4.84c-1.97-1.01-3.44-2.49-4.4-4.44
				c-0.96-1.95-1.44-3.91-1.44-5.88c0-2.56,0.67-4.61,2-6.16c1.33-1.55,2.91-2.32,4.72-2.32c1.55,0,2.77,0.63,3.68,1.88
				c0.91,1.25,1.36,3.08,1.36,5.48c0,1.76-0.24,3.57-0.72,5.44c-0.48,1.87-1.17,3.68-2.08,5.44c0.32,0.05,0.65,0.11,1,0.16
				c0.35,0.05,0.71,0.08,1.08,0.08c1.92,0,3.52-0.47,4.8-1.4c1.28-0.93,2.36-2.08,3.24-3.44s1.61-2.65,2.2-3.88l0.96,1.04
				c-1.49,3.68-3.27,6.12-5.32,7.32c-2.05,1.2-4.09,1.8-6.12,1.8c-0.43,0-0.85-0.03-1.28-0.08c-0.43-0.05-0.85-0.11-1.28-0.16
				c-1.44,2.45-3.21,4.55-5.32,6.28C370.65,100.62,368.19,101.48,365.36,101.48z M367.2,70.92c1.49-1.17,2.95-2.67,4.36-4.48
				c1.41-1.81,2.73-3.75,3.96-5.8c1.23-2.05,2.32-4.07,3.28-6.04c0.96-1.97,1.71-3.76,2.24-5.36c0.53-1.6,0.8-2.8,0.8-3.6
				c0-0.27-0.03-0.44-0.08-0.52c-0.05-0.08-0.13-0.12-0.24-0.12c-0.43,0-1.24,0.76-2.44,2.28c-1.2,1.52-2.53,3.55-4,6.08
				c-1.47,2.53-2.92,5.33-4.36,8.4C369.28,64.83,368.11,67.88,367.2,70.92z M376.48,90.12c0.59-1.23,1.04-2.52,1.36-3.88
				s0.48-2.76,0.48-4.2c0-1.87-0.25-3.33-0.76-4.4c-0.51-1.07-1.13-1.6-1.88-1.6c-0.8,0-1.51,0.55-2.12,1.64
				c-0.61,1.09-0.92,2.47-0.92,4.12c0,1.44,0.29,2.96,0.88,4.56C374.11,87.96,375.09,89.22,376.48,90.12z"/>
			<path d="M393.28,99.4c-1.65,0-3.05-0.55-4.2-1.64c-1.15-1.09-1.72-2.76-1.72-5c0-1.92,0.43-3.99,1.28-6.2
				c0.85-2.21,2.03-4.4,3.52-6.56c1.49-2.16,3.19-4.13,5.08-5.92c1.89-1.79,3.89-3.21,6-4.28c2.11-1.07,4.2-1.6,6.28-1.6
				s3.81,0.55,5.2,1.64c1.39,1.09,2.08,2.55,2.08,4.36c0,1.33-0.36,2.24-1.08,2.72c-0.72,0.48-1.67,0.72-2.84,0.72
				c0.11-0.43,0.2-0.89,0.28-1.4c0.08-0.51,0.12-0.97,0.12-1.4c0-1.23-0.29-2.28-0.88-3.16c-0.59-0.88-1.6-1.32-3.04-1.32
				c-1.49,0-3.01,0.52-4.56,1.56c-1.55,1.04-3.04,2.43-4.48,4.16c-1.44,1.73-2.72,3.61-3.84,5.64c-1.12,2.03-2,4.03-2.64,6
				c-0.64,1.97-0.96,3.73-0.96,5.28c0,2.08,0.72,3.12,2.16,3.12c1.23,0,2.56-0.57,4-1.72c1.44-1.15,2.92-2.61,4.44-4.4
				c1.52-1.79,2.97-3.64,4.36-5.56c1.39-1.92,2.61-3.68,3.68-5.28c0.21-0.32,0.35-0.48,0.4-0.48c0.32,0.05,0.73,0.16,1.24,0.32
				c0.51,0.16,0.95,0.37,1.32,0.64c0.37,0.27,0.56,0.61,0.56,1.04c0,0.48-0.24,1.13-0.72,1.96c-0.48,0.83-1.01,1.77-1.6,2.84
				c-0.59,1.07-1.12,2.15-1.6,3.24c-0.48,1.09-0.72,2.12-0.72,3.08c0,0.8,0.21,1.59,0.64,2.36c0.43,0.77,1.12,1.16,2.08,1.16
				c1.44,0,3.33-1.05,5.68-3.16c2.35-2.11,4.72-5.27,7.12-9.48l0.8,0.8c-1.12,2.88-2.56,5.41-4.32,7.6
				c-1.76,2.19-3.64,3.89-5.64,5.12s-3.96,1.84-5.88,1.84c-1.97,0-3.43-0.59-4.36-1.76c-0.93-1.17-1.4-2.45-1.4-3.84
				c0-0.32,0.03-0.68,0.08-1.08c0.05-0.4,0.11-0.81,0.16-1.24c-2.29,3.09-4.39,5.41-6.28,6.96C397.19,98.63,395.25,99.4,393.28,99.4
				z"/>
			<path d="M438.16,97.72c-1.81,0-3.24-0.48-4.28-1.44s-1.56-2.21-1.56-3.76c0-1.6,0.37-3.28,1.12-5.04
				c0.75-1.76,1.48-3.51,2.2-5.24c0.72-1.73,1.08-3.29,1.08-4.68c0-1.71-0.49-2.97-1.48-3.8c-0.99-0.83-1.99-1.59-3-2.28
				c-1.23,3.15-2.51,6.13-3.84,8.96c-1.33,2.83-2.43,4.96-3.28,6.4l-0.72-1.36c0.75-1.39,1.72-3.41,2.92-6.08
				c1.2-2.67,2.39-5.71,3.56-9.12c-0.53-0.53-0.8-1.17-0.8-1.92c0-1.6,0.45-2.91,1.36-3.92c0.91-1.01,1.57-1.52,2-1.52
				c0.59,0,0.92,0.25,1,0.76c0.08,0.51,0.12,0.89,0.12,1.16c0,0.27-0.15,0.79-0.44,1.56c-0.29,0.77-0.44,1.24-0.44,1.4
				c0,0.75,0.41,1.43,1.24,2.04c0.83,0.61,1.77,1.31,2.84,2.08c1.07,0.77,2.01,1.71,2.84,2.8c0.83,1.09,1.24,2.49,1.24,4.2
				c0,1.6-0.33,3.23-1,4.88c-0.67,1.65-1.33,3.23-2,4.72c-0.67,1.49-1,2.8-1,3.92c0,0.96,0.24,1.6,0.72,1.92
				c0.48,0.32,1.04,0.48,1.68,0.48c1.28,0,2.6-0.4,3.96-1.2s2.68-1.81,3.96-3.04c1.28-1.23,2.43-2.52,3.44-3.88
				c1.01-1.36,1.76-2.63,2.24-3.8l1.04,0.8c-1.01,2.24-2.4,4.44-4.16,6.6c-1.76,2.16-3.72,3.93-5.88,5.32S440.45,97.72,438.16,97.72
				z"/>
		</g>
	</g>
</g>
<g id="Glass">
	<g>
		
			<rect x="230.01" y="89.7" transform="matrix(-1.836970e-16 1 -1 -1.836970e-16 334.7386 -128.0953)" class="st0" width="2.82" height="27.24"/>
		<polygon class="st1" points="247.28,62.44 286.65,9.66 207.92,9.66 		"/>
		<polygon class="st2" points="231.12,56.52 270.49,3.73 191.75,3.73 		"/>
		<rect x="229.85" y="53" class="st0" width="2.53" height="49.27"/>
	</g>
</g>
</svg>
